<?xml version="1.0" encoding="UTF-8"?>
<svg id="Layer_1" xmlns="http://www.w3.org/2000/svg" version="1.1" viewBox="0 0 640 640">
  <!-- Generator: Adobe Illustrator 30.2.1, SVG Export Plug-In . SVG Version: 2.1.1 Build 1)  -->
  <defs>
    <style>
      .st0 {
        fill: #fff;
      }
    </style>
  </defs>
  <path class="st0" d="M320,64c6.6,0,12.9,2.7,17.4,7.5l144,152,.5.5h78.1c17.7,0,32,14.3,32,32,0,14.5-9.6,26.7-22.8,30.7l-46.1,207.2c-6.5,29.3-32.5,50.1-62.5,50.1H179.3c-30,0-56-20.8-62.5-50.1l-46-207.2c-13.2-3.9-22.8-16.2-22.8-30.7,0-17.7,14.3-32,32-32h78.1l.5-.5,144-152c4.5-4.8,10.8-7.5,17.4-7.5ZM320,122.9l-95.8,101.1h191.6l-95.8-101.1ZM240,328c0-13.3-10.7-24-24-24s-24,10.7-24,24v112c0,13.3,10.7,24,24,24s24-10.7,24-24v-112ZM320,304c-13.3,0-24,10.7-24,24v112c0,13.3,10.7,24,24,24s24-10.7,24-24v-112c0-13.3-10.7-24-24-24ZM448,328c0-13.3-10.7-24-24-24s-24,10.7-24,24v112c0,13.3,10.7,24,24,24s24-10.7,24-24v-112Z"/>
</svg>