<?xml version="1.0" encoding="UTF-8"?>
<svg id="Layer_1" xmlns="http://www.w3.org/2000/svg" version="1.1" viewBox="0 0 640 640">
  <!-- Generator: Adobe Illustrator 30.2.1, SVG Export Plug-In . SVG Version: 2.1.1 Build 1)  -->
  <defs>
    <style>
      .st0 {
        fill: #fff;
      }
    </style>
  </defs>
  <path class="st0" d="M544.5,273.9c-44,.1-87-13.6-122.8-39.2v178.7c0,33.1-10.1,65.4-29,92.6-18.9,27.2-45.6,48-76.6,59.6-31,11.6-64.8,13.5-96.9,5.3-32.1-8.2-60.9-25.9-82.7-50.8-21.8-24.9-35.3-56-39-88.9-3.7-32.9,2.9-66.1,18.6-95.2,15.7-29.1,40-52.7,69.6-67.7,29.6-15,62.9-20.5,95.7-16v89.9c-15-4.7-31.1-4.6-46,.4-14.9,5-27.9,14.6-37,27.3-9.1,12.7-14,28.1-13.9,43.9.1,15.8,5.2,31,14.5,43.7s22.4,22.1,37.4,26.9c15,4.8,31.1,4.8,46-.1,14.9-4.9,28-14.4,37.2-27.1,9.2-12.7,14.2-28.1,14.2-43.8V64h88c-.1,7.4.6,14.9,1.9,22.2,3.1,16.3,9.4,31.9,18.7,45.7,9.3,13.8,21.3,25.6,35.2,34.6,19.9,13.1,43.2,20.1,67,20.1v87.4l-.1-.1Z"/>
</svg>